Coordinates
version=1
nRows=54
nColumns=13
inDegrees=yes

Units are S.I. units (second, meters, Newtons, ...)
If the header above contains a line with 'inDegrees', this indicates whether rotational values are in degrees (yes) or radians (no).

endheader
time	bJoint_3	seatpos	hipangle	kneeangle	footangle	lbackangle	uarmleft_out	uarmleft_trn	uarmleft_up	uarmright_out	uarmright_trn	uarmright_up
      0.00000000	     -0.00000000	     -0.65653021	     23.53886128	    145.00949311	     78.54835439	     11.46143251	    -19.14243853	    -46.84315731	     -0.00000000	    -14.26608696	    -45.60771760	      0.00000000
      0.00500000	     -0.00000000	     -0.65628048	     23.55044659	    144.97806842	     78.52851501	     11.39967156	    -18.99074157	    -46.85120246	     -0.00000000	    -14.11566349	    -45.61216995	      0.00000000
      0.01000000	     -0.00000000	     -0.65551513	     23.58601943	    144.88173176	     78.46775119	     11.44794546	    -19.11802133	    -46.81850816	     -0.00000000	    -14.24647083	    -45.43927331	      0.00000000
      0.01500000	     -0.00000000	     -0.65530619	     23.59574821	    144.85542469	     78.45117290	     11.41033551	    -19.05903896	    -46.72546793	     -0.00000000	    -14.20348472	    -45.34767936	      0.00000000
      0.02000000	     -0.00000000	     -0.65427871	     23.64369788	    144.72601360	     78.36971148	     11.39813039	    -19.03796538	    -46.56037942	     -0.00000000	    -14.18663193	    -45.32371940	      0.00000000
      0.02500000	     -0.00000000	     -0.65352837	     23.67882675	    144.63146177	     78.31028852	     11.45995188	    -19.18889125	    -46.55202901	     -0.00000000	    -14.33656066	    -45.31925679	      0.00000000
      0.03000000	     -0.00000000	     -0.65327842	     23.69054967	    144.59995646	     78.29050613	     11.39761870	    -19.03701369	    -46.55949687	     -0.00000000	    -14.25811211	    -45.03711483	      0.00000000
      0.03500000	     -0.00000000	     -0.65227695	     23.73762484	    144.47367949	     78.21130433	     11.39680988	    -19.08523524	    -46.26932451	     -0.00000000	    -14.25674233	    -45.03538203	      0.00000000
      0.04000000	     -0.00000000	     -0.65129203	     23.78408470	    144.34942030	     78.13350500	     11.40986344	    -19.10819516	    -46.29318557	     -0.00000000	    -14.34764448	    -44.91854542	      0.00000000
      0.04500000	     -0.00000000	     -0.65030324	     23.83088744	    144.22460563	     78.05549307	     11.40791592	    -19.15284231	    -46.14541753	     -0.00000000	    -14.34382464	    -44.77151876	      0.00000000
      0.05000000	     -0.00000000	     -0.64927569	     23.87969437	    144.09482511	     77.97451948	     11.39579582	    -19.13192152	    -45.97916079	     -0.00000000	    -14.32703874	    -44.74793532	      0.00000000
      0.05500000	     -0.00000000	     -0.64830220	     23.92609136	    143.97180450	     77.89789586	     11.40710015	    -19.19972473	    -45.85599144	     -0.00000000	    -14.41346870	    -44.48407440	      0.00000000
      0.06000000	     -0.00000000	     -0.64652419	     24.01122472	    143.74694530	     77.75817002	     11.45692426	    -19.32821717	    -45.68093712	     -0.00000000	    -14.54569322	    -44.45621735	      0.00000000
      0.06500000	     -0.00000000	     -0.64550889	     24.06006396	    143.61844445	     77.67850841	     11.44357936	    -19.30466171	    -45.65701657	     -0.00000000	    -14.52583442	    -44.28564571	      0.00000000
      0.07000000	     -0.00000000	     -0.64428974	     24.11892388	    143.46404677	     77.58297064	     11.40778107	    -19.24937473	    -45.42332218	     -0.00000000	    -14.55509592	    -44.05885903	      0.00000000
      0.07500000	     -0.00000000	     -0.64330163	     24.16679874	    143.33883447	     77.50563322	     11.40621234	    -19.29330440	    -45.27834320	     -0.00000000	    -14.55182435	    -43.91040985	      0.00000000
      0.08000000	     -0.00000000	     -0.64152377	     24.25331858	    143.11337120	     77.36668978	     11.45615447	    -19.42148652	    -45.10225507	     -0.00000000	    -14.68297573	    -43.88298492	      0.00000000
      0.08500000	     -0.00000000	     -0.64030078	     24.31311546	    142.95814835	     77.27126381	     11.40638999	    -19.33995279	    -44.99801756	     -0.00000000	    -14.62058715	    -43.61721934	      0.00000000
      0.09000000	     -0.00000000	     -0.63830189	     24.41133655	    142.70422033	     77.11555688	     11.40642865	    -19.38629662	    -44.70142204	     -0.00000000	    -14.68951604	    -43.33960072	      0.00000000
      0.09500000	     -0.00000000	     -0.63727505	     24.46202501	    142.57366850	     77.03569351	     11.39447409	    -19.36634535	    -44.53337758	     -0.00000000	    -14.67244279	    -43.31590273	      0.00000000
      0.10000000	     -0.00000000	     -0.63530397	     24.55976121	    142.32285851	     76.88261972	     11.40681576	    -19.43351947	    -44.41513069	     -0.00000000	    -14.75716441	    -43.05326474	      0.00000000
      0.10500000	     -0.00000000	     -0.63330549	     24.65943463	    142.06828447	     76.72771910	     11.40754941	    -19.48033539	    -44.12824657	     -0.00000000	    -14.82503446	    -42.76848054	      0.00000000
      0.11000000	     -0.00000000	     -0.63151196	     24.74937568	    141.83957924	     76.58895492	     11.44479462	    -19.58413469	    -43.92756362	     -0.00000000	    -14.93573703	    -42.56841130	      0.00000000
      0.11500000	     -0.00000000	     -0.62952991	     24.84930188	    141.58657183	     76.43587371	     11.45880463	    -19.65370471	    -43.66327872	     -0.00000000	    -15.02204968	    -42.45788159	      0.00000000
      0.12000000	      0.00000000	     -0.62753247	     24.95056022	    141.33132225	     76.28188246	     11.46012457	    -19.70006610	    -43.37697894	     -0.00000000	    -15.08935479	    -42.17425331	      0.00000000
      0.12500000	     -0.00000000	     -0.62556376	     25.05090198	    141.07946890	     76.13037088	     11.47326269	    -19.76644484	    -43.26260858	     -0.00000000	    -15.17254184	    -41.91273626	      0.00000000
      0.13000000	     -0.00000000	     -0.62351988	     25.15563443	    140.81771002	     75.97334445	     11.44891244	    -19.72393663	    -43.06918252	     -0.00000000	    -15.13720071	    -41.71632457	      0.00000000
      0.13500000	     -0.00000000	     -0.62152338	     25.25848142	    140.56173567	     75.82021710	     11.45081030	    -19.77070794	    -42.78396424	     -0.00000000	    -15.20373571	    -41.43336040	      0.00000000
      0.14000000	     -0.00000000	     -0.61932510	     25.37233498	    140.27956514	     75.65190012	     11.41736146	    -19.76114144	    -42.41721185	     -0.00000000	    -15.22752993	    -41.07030050	      0.00000000
      0.14500000	     -0.00000000	     -0.61728188	     25.47872573	    140.01699047	     75.49571620	     11.39329312	    -19.71929212	    -42.22290503	     -0.00000000	    -15.19269545	    -40.87325493	      0.00000000
      0.15000000	      0.00000000	     -0.61453702	     25.62249931	    139.66378196	     75.28628127	     11.45808534	    -19.91081151	    -41.93158548	     -0.00000000	    -15.40297600	    -40.58754943	      0.00000000
      0.15500000	     -0.00000000	     -0.61229235	     25.74078613	    139.37453923	     75.11532537	     11.39890746	    -19.81358281	    -41.65615316	     -0.00000000	    -15.32556868	    -40.31100533	      0.00000000
      0.16000000	     -0.00000000	     -0.60954910	     25.88620366	    139.02056279	     74.90676645	     11.46419539	    -20.00317509	    -41.36693228	     -0.00000000	    -15.53594447	    -40.02539392	      0.00000000
      0.16500000	     -0.00000000	     -0.60730498	     26.00585403	    138.73059116	     74.73644519	     11.40556794	    -19.90820080	    -41.09155933	     -0.00000000	    -15.45758658	    -39.75095994	      0.00000000
      0.17000000	     -0.00000000	     -0.60451884	     26.15525600	    138.37008016	     74.52533616	     11.44808909	    -20.05656652	    -40.60702262	     -0.00000000	    -15.63294990	    -39.26885231	      0.00000000
      0.17500000	     -0.00000000	     -0.60227649	     26.27617557	    138.07952464	     74.35570021	     11.39003677	    -19.96278868	    -40.33313412	     -0.00000000	    -15.55526477	    -38.99465501	      0.00000000
      0.18000000	      0.00000000	     -0.59928480	     26.43842913	    137.69130697	     74.12973611	     11.39441656	    -20.01051374	    -40.05263301	     -0.00000000	    -15.62095431	    -38.71645384	      0.00000000
      0.18500000	     -0.00000000	     -0.59634586	     26.59883853	    137.30929876	     73.90813729	     11.42682070	    -20.14576292	    -39.68981587	     -0.00000000	    -15.78519191	    -38.36091637	      0.00000000
      0.19000000	     -0.00000000	     -0.59331679	     26.76520428	    136.91491544	     73.68011972	     11.41261678	    -20.16039078	    -39.21998584	     -0.00000000	    -15.56906852	    -37.86294817	      0.00000000
      0.19500000	     -0.00000000	     -0.59032723	     26.93041769	    136.52501317	     73.45543087	     11.41805512	    -20.20815024	    -38.94186773	     -0.00000000	    -15.63549673	    -37.58736558	      0.00000000
      0.20000000	     -0.00000000	     -0.58729564	     27.09897001	    136.12895579	     73.22792580	     11.40138683	    -20.21811736	    -38.46670410	     -0.00000000	    -15.66904325	    -37.11305426	      0.00000000
      0.20500000	     -0.00000000	     -0.58430771	     27.26608261	    135.73793232	     73.00401493	     11.40745818	    -20.26655893	    -38.18961648	     -0.00000000	    -15.73496525	    -36.83878728	      0.00000000
      0.21000000	     -0.00000000	     -0.58130486	     27.43500375	    135.34428249	     72.77928624	     11.40226331	    -20.29478518	    -37.89537338	     -0.00000000	    -15.78401292	    -36.38232319	      0.00000000
      0.21500000	     -0.00000000	     -0.57829091	     27.60551773	    134.94849550	     72.55401323	     11.39852943	    -20.32629200	    -37.43905290	     -0.00000000	    -15.83505995	    -36.09188577	      0.00000000
      0.22000000	     -0.00000000	     -0.57451338	     27.82058278	    134.45146184	     72.27204462	     11.44623357	    -20.47720851	    -36.95811169	     -0.00000000	    -16.00831218	    -35.61496731	      0.00000000
      0.22500000	     -0.00000000	     -0.57133330	     28.00278274	    134.03219242	     72.03497516	     11.42042167	    -20.47386097	    -36.61491445	     -0.00000000	    -16.03289182	    -35.27649491	      0.00000000
      0.23000000	      0.00000000	     -0.56753720	     28.22163319	    133.53068405	     71.75231723	     11.45376772	    -20.59795914	    -36.11252654	     -0.00000000	    -16.12824957	    -34.89299020	      0.00000000
      0.23500000	     -0.00000000	     -0.56431849	     28.40833779	    133.10457693	     71.51291473	     11.40797022	    -20.55939551	    -35.57435817	     -0.00000000	    -16.12260396	    -34.35633728	      0.00000000
      0.24000000	     -0.00000000	     -0.56053542	     28.62909988	    132.60271819	     71.23181807	     11.45431445	    -20.66952256	    -35.37550552	     -0.00000000	    -16.28996708	    -33.87549407	      0.00000000
      0.24500000	      0.00000000	     -0.55731774	     28.81797869	    132.17497218	     70.99295086	     11.40695717	    -20.38010055	    -34.81928607	     -0.00000000	    -16.22756213	    -33.62006091	      0.00000000
      0.25000000	     -0.00000000	     -0.55331847	     29.05414259	    131.64217054	     70.69631314	     11.41177938	    -20.42406848	    -34.37231629	     -0.00000000	    -16.33984464	    -33.06311519	      0.00000000
      0.25500000	     -0.00000000	     -0.54952663	     29.27947964	    131.13581020	     70.41528984	     11.44790182	    -20.55071561	    -33.87368507	     -0.00000000	    -16.43718348	    -32.67713496	      0.00000000
      0.26000000	     -0.00000000	     -0.54553021	     29.51845417	    130.60086131	     70.11931548	     11.45420868	    -20.59637362	    -33.42710190	     -0.00000000	    -16.54919321	    -32.12333768	      0.00000000
      0.26500000	     -0.00000000	     -0.54154966	     29.75797377	    130.06672564	     69.82469941	     11.45954935	    -20.67340934	    -32.86920884	     -0.00000000	    -16.60737144	    -31.67760593	      0.00000000
